HIERARCHY
ROOT Hips
{
  OFFSET 0 89.5177 0.535
  CHANNELS 6 Xposition Yposition Zposition Zrotation Xrotation Yrotation
  JOINT Spine
  {
    OFFSET 12.0259 -0.162855 1.69034e-005
    CHANNELS 3 Zrotation Xrotation Yrotation
    JOINT Spine1
    {
      OFFSET 15.3169 -0.0121922 0
      CHANNELS 3 Zrotation Xrotation Yrotation
      JOINT Spine2
      {
        OFFSET 15.3176 -0.0121908 0
        CHANNELS 3 Zrotation Xrotation Yrotation
        JOINT Neck
        {
          OFFSET 19.9142 1.56338 0
          CHANNELS 3 Zrotation Xrotation Yrotation
          JOINT Head
          {
            OFFSET 6.92651 0 0
            CHANNELS 3 Zrotation Xrotation Yrotation
            End Site
            {
              OFFSET 20.7666 0 0
            }
          }
          JOINT LeftShoulder
          {
            OFFSET -6.20654 0.708824 7.28219
            CHANNELS 3 Zrotation Xrotation Yrotation
            JOINT LeftArm
            {
              OFFSET 14.108 0 -1.52588e-005
              CHANNELS 3 Zrotation Xrotation Yrotation
              JOINT LeftForeArm
              {
                OFFSET 28.5802 0 0
                CHANNELS 3 Zrotation Xrotation Yrotation
                JOINT LeftHand
                {
                  OFFSET 27.092 0 0
                  CHANNELS 3 Zrotation Xrotation Yrotation
                  End Site
                  {
                    OFFSET 9.55928 -0.186424 0.145352
                  }
                }
              }
            }
          }
          JOINT RightShoulder
          {
            OFFSET -6.20654 0.708866 -7.28218
            CHANNELS 3 Zrotation Xrotation Yrotation
            JOINT RightArm
            {
              OFFSET 14.108 0 1.52588e-005
              CHANNELS 3 Zrotation Xrotation Yrotation
              JOINT RightForeArm
              {
                OFFSET 28.5802 0 0
                CHANNELS 3 Zrotation Xrotation Yrotation
                JOINT RightHand
                {
                  OFFSET 27.092 0 0
                  CHANNELS 3 Zrotation Xrotation Yrotation
                  End Site
                  {
                    OFFSET 9.55929 -0.186417 -0.145354
                  }
                }
              }
            }
          }
        }
      }
    }
  }
  JOINT LeftUpLeg
  {
    OFFSET 0.005 -0.535 8.837
    CHANNELS 3 Zrotation Xrotation Yrotation
    JOINT LeftLeg
    {
      OFFSET 39.9035 0 0
      CHANNELS 3 Zrotation Xrotation Yrotation
      JOINT LeftFoot
      {
        OFFSET 39.6689 0 0
        CHANNELS 3 Zrotation Xrotation Yrotation
        JOINT LeftToe
        {
          OFFSET 10.1624 13.6296 0
          CHANNELS 3 Zrotation Xrotation Yrotation
          End Site
          {
            OFFSET 8.38147 0 0
          }
        }
      }
    }
  }
  JOINT RightUpLeg
  {
    OFFSET 0.005 -0.535 -8.837
    CHANNELS 3 Zrotation Xrotation Yrotation
    JOINT RightLeg
    {
      OFFSET 39.9035 0 0
      CHANNELS 3 Zrotation Xrotation Yrotation
      JOINT RightFoot
      {
        OFFSET 39.6689 0 0
        CHANNELS 3 Zrotation Xrotation Yrotation
        JOINT RightToe
        {
          OFFSET 10.1624 13.6296 0
          CHANNELS 3 Zrotation Xrotation Yrotation
          End Site
          {
            OFFSET 8.38147 0 0
          }
        }
      }
    }
  }
}
MOTION
Frames:	14
Frame Time:	0.0333333
400.32 89.1844 33.5432 141.951 -84.0161 51.7163 -0.535325 -0.634234 0.725765 -1.06267 -1.2747 1.44588 -1.06267 -1.2747 1.44587 -8.30748e-012 -9.0191e-006 -5.27751e-005 -14.7971 3.58518 -5.53024 -179.745 -9.93366 -88.5234 83.9134 -74.9208 75.655 -3.63077 -1.59028e-015 3.18055e-015 -47.5487 -15.5055 -38.2022 179.713 2.51137 96.5311 68.2211 58.1906 -57.0003 -20.4232 0 -0 -49.4107 28.2863 47.133 -3.15286 8.34951 -177.986 -10.8699 1.59028e-015 7.95139e-016 14.1671 9.00183 -7.39419 90 1.63997e-015 -3.97569e-016 3.82265 -6.12896 -178.975 4.11154e-007 0 1.49089e-016 8.47026 -7.47583 5.46354 90 -6.89534e-016 -7.95139e-016 
400.329 89.1774 33.4606 143.028 -84.1963 52.7651 -0.536384 -0.626462 0.718135 -1.06497 -1.2591 1.43068 -1.06497 -1.2591 1.43067 -8.30748e-012 -9.0191e-006 -5.27751e-005 -14.749 3.50184 -5.52185 -179.753 -9.95249 -88.5706 84.8409 -74.978 76.3367 -3.6267 5.96354e-016 -0 -47.452 -15.5389 -38.085 179.71 2.50903 96.597 68.3908 58.3023 -57.0987 -20.5623 0 3.18055e-015 -48.9584 28.6259 47.0554 -2.92122 8.42314 -177.965 -10.7003 -1.59028e-015 -0 14.0776 8.88966 -7.35694 90 7.20594e-016 3.97569e-016 3.93582 -5.98613 -178.959 4.11148e-007 -7.95139e-016 4.96962e-017 8.50721 -7.53418 5.54777 90 1.92573e-016 1.59028e-015 
400.332 89.1707 33.3853 144.092 -84.3503 53.8164 -0.535419 -0.619071 0.704888 -1.06327 -1.24419 1.40426 -1.06327 -1.24419 1.40425 -8.30708e-012 -9.0191e-006 -5.27751e-005 -14.7513 3.39599 -5.53543 -179.764 -9.93491 -88.6309 84.5444 -74.9471 75.9757 -3.74308 -1.59028e-015 -6.36111e-015 -47.5941 -15.605 -38.2754 179.707 2.521 96.639 68.1117 58.2948 -56.9221 -20.8023 0 3.18055e-015 -48.3828 28.9337 46.8869 -2.73049 8.51032 -177.963 -10.5825 0 3.97569e-016 14.0456 8.81992 -7.34569 90 1.46604e-015 -7.95139e-016 3.2716 -5.94546 -179.046 -1.50566 3.97569e-016 9.93923e-017 9.29408 -7.61678 5.66606 90 6.83322e-017 -7.95139e-016 
400.352 89.1633 33.3184 145.173 -84.537 54.87 -0.522326 -0.610481 0.694672 -1.0373 -1.22676 1.38404 -1.0373 -1.22676 1.38403 -8.30669e-012 -9.0191e-006 -5.27751e-005 -14.7992 3.30511 -5.50783 -179.784 -9.95945 -88.7538 83.3479 -74.6627 74.9143 -4.12727 3.97569e-016 -0 -47.5974 -15.67 -38.3594 179.702 2.53209 96.7162 67.8077 58.19 -56.878 -21.112 6.36111e-015 -0 -47.645 29.116 46.3431 -2.44353 8.51615 -177.951 -10.3189 -1.59028e-015 -7.95139e-016 13.8585 8.63562 -7.26664 90 -3.85145e-016 1.19271e-015 3.21627 -5.81169 -179.039 -1.84865 -7.95139e-016 -9.93923e-017 9.48937 -7.65588 5.72497 90 5.71506e-016 7.95139e-016 
400.37 89.1595 33.2708 146.314 -84.6495 55.994 -0.510529 -0.607705 0.681785 -1.01383 -1.22367 1.35841 -1.01383 -1.22367 1.3584 -8.30748e-012 -9.0191e-006 -5.27751e-005 -15.0218 3.17496 -5.45839 -179.802 -10.0265 -88.8643 81.7838 -74.3172 73.6434 -4.57089 -3.97569e-016 -0 -47.3421 -15.7834 -38.146 179.699 2.55206 96.7388 67.4157 58.0861 -56.8465 -21.4337 3.18055e-015 1.59028e-015 -47.3986 28.974 46.0382 -2.30406 8.56026 -177.942 -10.2007 1.59028e-015 7.95139e-016 13.8174 8.55606 -7.23622 90 1.25483e-015 -0 3.1032 -5.71521 -179.044 -2.17132 0 1.98785e-016 9.66684 -7.69768 5.79286 90 -2.13694e-015 -1.59028e-015 
400.388 89.1568 33.2281 147.202 -84.7194 56.8725 -0.505161 -0.605581 0.667174 -1.00321 -1.22306 1.32924 -1.00321 -1.22306 1.32924 -8.30748e-012 -9.0191e-006 -5.27751e-005 -15.2309 3.07436 -5.43463 -179.805 -10.0349 -88.8823 79.3936 -74.0006 71.5831 -4.99493 7.95139e-016 -3.18055e-015 -47.285 -15.8387 -38.1276 179.698 2.53975 96.7736 67.106 57.889 -56.8599 -21.8266 3.18055e-015 -0 -47.095 28.8813 45.7029 -2.10747 8.52095 -177.948 -9.90598 3.18055e-015 7.95139e-016 13.5767 8.39167 -7.19528 90 7.45443e-017 -3.97569e-016 2.97853 -5.66909 -179.054 -2.4806 -3.97569e-016 -0 9.83891 -7.75018 5.87037 90 -1.50331e-015 -0 
400.418 89.153 33.1949 147.906 -84.7395 57.5584 -0.505845 -0.604224 0.651322 -1.00687 -1.22764 1.2975 -1.00687 -1.22764 1.29749 -8.30788e-012 -9.0191e-006 -5.27751e-005 -15.4728 2.93379 -5.35389 -179.801 -10.0731 -88.8616 77.7866 -73.8302 70.3629 -5.37528 -7.95139e-016 3.18055e-015 -46.8669 -15.8797 -37.7507 179.703 2.50334 96.7759 66.7939 57.6642 -56.7925 -22.1257 0 -0 -46.6781 28.795 45.1709 -2.06771 8.57703 -177.916 -9.83751 0 -0 13.5287 8.37101 -7.21033 90 -1.6524e-015 -3.97569e-016 2.65194 -5.6994 -179.068 -3.12916 3.97569e-016 -0 10.1787 -7.84102 6.0118 90 4.34841e-017 -0 
400.452 89.1498 33.1642 148.715 -84.7436 58.3651 -0.507292 -0.603748 0.633378 -1.01343 -1.21261 1.26164 -1.01343 -1.21261 1.26163 -8.30669e-012 -9.0191e-006 -5.27751e-005 -15.7393 2.78958 -5.26472 -179.796 -10.1243 -88.8381 75.2227 -73.436 68.2533 -5.86309 2.38542e-015 -9.54166e-015 -46.569 -16.0124 -37.6943 179.7 2.51576 96.7991 66.4853 57.4481 -56.7117 -22.3678 0 3.18055e-015 -46.0331 28.9274 44.6969 -2.04529 8.64004 -177.893 -9.7638 0 3.97569e-016 13.494 8.35787 -7.23397 90 3.10601e-016 -7.95139e-016 2.52337 -5.63447 -179.063 -3.34653 -3.97569e-016 9.93923e-017 10.3017 -7.86157 6.05042 90 6.21202e-018 -7.95139e-016 
400.466 89.1467 33.1319 148.34 -84.6846 57.9828 -0.509004 -0.612993 0.616076 -1.02016 -1.23096 1.22694 -1.02016 -1.23096 1.22693 -8.30748e-012 -9.0191e-006 -5.27751e-005 -16.0629 2.65556 -5.19205 -179.801 -10.1044 -88.8635 74.0277 -73.1614 67.3722 -6.18131 -1.59028e-015 -0 -46.2903 -15.9651 -37.3344 179.702 2.48853 96.819 66.3821 57.3014 -56.6892 -22.3923 0 -1.59028e-015 -45.7208 28.744 44.3001 -2.05702 8.58297 -177.877 -9.74865 -1.59028e-015 -7.95139e-016 13.4912 8.36179 -7.24715 90 -1.87603e-015 -1.19271e-015 2.50487 -5.77123 -179.051 -3.37609 7.95139e-016 9.93923e-017 10.3436 -7.89369 6.09767 90 1.77664e-015 -0 
400.477 89.1438 33.0994 147.983 -84.6181 57.6277 -0.51074 -0.617517 0.601531 -1.02438 -1.23992 1.19776 -1.02438 -1.23992 1.19775 -8.30669e-012 -9.0191e-006 -5.27751e-005 -16.3912 2.53181 -5.17842 -179.798 -10.0568 -88.8422 72.6273 -72.8581 66.2255 -6.46442 -2.38542e-015 -0 -45.7468 -16.0092 -36.9721 179.707 2.44743 96.833 66.5265 57.2592 -56.7957 -22.3671 -6.36111e-015 4.77083e-015 -45.3982 28.7639 44.0426 -2.09845 8.57553 -177.86 -9.7769 0 3.97569e-016 13.5262 8.41004 -7.29375 90 -1.2424e-016 -0 2.58973 -5.78778 -179.029 -3.19616 0 -0 10.2853 -7.88049 6.08844 90 -1.42255e-015 -1.59028e-015 
400.482 89.1417 33.0629 147.308 -84.5614 56.9604 -0.51203 -0.629324 0.586914 -1.02192 -1.26339 1.16844 -1.02192 -1.26339 1.16843 -8.30708e-012 -9.0191e-006 -5.27751e-005 -16.7407 2.45224 -5.11227 -179.789 -10.0781 -88.7923 71.3349 -72.6 65.1769 -6.67616 -2.38542e-015 6.36111e-015 -45.4259 -16.0608 -36.8647 179.703 2.46178 96.8718 66.6839 57.2079 -56.9903 -22.3155 3.18055e-015 -0 -45.12 29.0051 44.0101 -2.07841 8.49513 -177.863 -9.73415 -3.18055e-015 -1.19271e-015 13.5019 8.40953 -7.31554 90 -6.08778e-016 -3.97569e-016 3.04769 -5.78939 -178.967 -2.33094 3.97569e-016 -1.98785e-016 9.88704 -7.79719 5.9619 90 3.66509e-016 7.95139e-016 
400.49 89.1393 33.0254 146.858 -84.5261 56.4997 -0.512607 -0.63279 0.576787 -1.01891 -1.27022 1.14817 -1.01891 -1.27022 1.14816 -8.30788e-012 -9.0191e-006 -5.27751e-005 -17.0227 2.30859 -5.13244 -179.782 -10.0399 -88.7519 70.9032 -72.4349 64.8119 -6.76642 1.59028e-015 -0 -45.184 -16.0064 -36.6892 179.704 2.47196 96.8292 66.6424 57.1423 -56.9215 -22.2351 0 1.59028e-015 -44.9877 29.0201 43.8931 -2.06743 8.45342 -177.844 -9.73167 -1.59028e-015 3.97569e-016 13.5148 8.42234 -7.33198 90 8.82107e-016 -3.97569e-016 3.58265 -5.80533 -178.89 -1.32099 -7.95139e-016 -9.93923e-017 9.41285 -7.7585 5.89833 90 2.48481e-017 -7.95139e-016 
400.495 89.1373 32.9851 146.214 -84.5153 55.8705 -0.512458 -0.641059 0.564011 -0.998945 -1.27969 1.12269 -0.998945 -1.27969 1.12268 -8.30748e-012 -9.0191e-006 -5.27751e-005 -17.3535 2.24065 -5.13803 -179.772 -10.0484 -88.6959 71.0431 -72.4448 64.9755 -6.63438 0 9.54166e-015 -44.6818 -16.0179 -36.4425 179.704 2.49224 96.7652 66.6635 57.1056 -56.902 -22.1993 -6.36111e-015 1.59028e-015 -44.87 29.1196 43.8799 -1.97475 8.39365 -177.859 -9.63923 1.59028e-015 -7.95139e-016 13.4588 8.40307 -7.35421 90 3.78933e-016 -0 4.30616 -5.80537 -178.818 -9.41718e-007 3.97569e-016 -1.49089e-016 8.78624 -7.70588 5.83014 90 -9.38015e-016 7.95139e-016 
400.5 89.1352 32.9415 145.45 -84.4881 55.1127 -0.511975 -0.64647 0.554307 -0.992055 -1.29725 1.10324 -0.992055 -1.29725 1.10323 -8.30708e-012 -9.0191e-006 -5.27751e-005 -17.6992 2.14337 -5.13869 -179.748 -10.0651 -88.5592 71.4083 -72.6588 65.3167 -6.31176 -1.59028e-015 -6.36111e-015 -43.8056 -16.0785 -36.0069 179.71 2.47819 96.6807 66.7601 57.0716 -56.9114 -22.1552 6.36111e-015 1.59028e-015 -44.7673 29.1764 43.8789 -1.88034 8.27707 -177.866 -9.52745 -1.59028e-015 -0 13.3823 8.36022 -7.35979 90 3.04389e-016 -0 4.36607 -5.84296 -178.802 1.88993e-006 -1.19271e-015 -1.98785e-016 8.82555 -7.67056 5.76794 90 -9.75287e-016 7.95139e-016 
